G04 Layer_Physical_Order=2*
G04 Layer_Color=16711680*
%FSLAX25Y25*%
%MOIN*%
G70*
G01*
G75*
%ADD17C,0.02000*%
%ADD21C,0.06300*%
%ADD22C,0.08000*%
%ADD23R,0.10000X0.10000*%
%ADD24R,0.05000X0.05000*%
%ADD25R,0.07000X0.05000*%
%ADD26C,0.05905*%
%ADD27R,0.05905X0.05905*%
%ADD28C,0.06000*%
%ADD29C,0.04000*%
%ADD30C,0.03500*%
G36*
X206500Y0D02*
X0D01*
Y136000D01*
X206500D01*
Y0D01*
D02*
G37*
%LPC*%
G36*
X77500Y46000D02*
X75040D01*
X75077Y45717D01*
X75380Y44987D01*
X75860Y44360D01*
X76487Y43880D01*
X77217Y43577D01*
X77500Y43540D01*
Y46000D01*
D02*
G37*
G36*
X37500Y51043D02*
X36195Y50871D01*
X34978Y50367D01*
X33934Y49566D01*
X33132Y48522D01*
X32629Y47305D01*
X32457Y46000D01*
X32629Y44695D01*
X33132Y43478D01*
X33934Y42434D01*
X34978Y41633D01*
X36195Y41129D01*
X37500Y40957D01*
X38805Y41129D01*
X40022Y41633D01*
X41066Y42434D01*
X41868Y43478D01*
X42371Y44695D01*
X42543Y46000D01*
X42371Y47305D01*
X41868Y48522D01*
X41066Y49566D01*
X40022Y50367D01*
X38805Y50871D01*
X37500Y51043D01*
D02*
G37*
G36*
X77500Y49460D02*
X77217Y49423D01*
X76487Y49121D01*
X75860Y48640D01*
X75380Y48013D01*
X75077Y47283D01*
X75040Y47000D01*
X77500D01*
Y49460D01*
D02*
G37*
G36*
X80960Y46000D02*
X78500D01*
Y43540D01*
X78783Y43577D01*
X79513Y43880D01*
X80140Y44360D01*
X80620Y44987D01*
X80923Y45717D01*
X80960Y46000D01*
D02*
G37*
G36*
X156500Y42421D02*
Y39000D01*
X159921D01*
X159851Y39532D01*
X159453Y40493D01*
X158819Y41319D01*
X157993Y41953D01*
X157032Y42351D01*
X156500Y42421D01*
D02*
G37*
G36*
X155500D02*
X154968Y42351D01*
X154007Y41953D01*
X153181Y41319D01*
X152547Y40493D01*
X152149Y39532D01*
X152079Y39000D01*
X155500D01*
Y42421D01*
D02*
G37*
G36*
X25500Y51043D02*
X24195Y50871D01*
X22978Y50367D01*
X21934Y49566D01*
X21133Y48522D01*
X20629Y47305D01*
X20457Y46000D01*
X20629Y44695D01*
X21133Y43478D01*
X21934Y42434D01*
X22978Y41633D01*
X24195Y41129D01*
X25500Y40957D01*
X26805Y41129D01*
X28022Y41633D01*
X29066Y42434D01*
X29868Y43478D01*
X30371Y44695D01*
X30543Y46000D01*
X30371Y47305D01*
X29868Y48522D01*
X29066Y49566D01*
X28022Y50367D01*
X26805Y50871D01*
X25500Y51043D01*
D02*
G37*
G36*
X65000Y48535D02*
X63956Y48397D01*
X62983Y47994D01*
X62147Y47353D01*
X61506Y46517D01*
X61103Y45544D01*
X60966Y44500D01*
X61103Y43456D01*
X61506Y42483D01*
X62147Y41647D01*
X62983Y41006D01*
X63956Y40603D01*
X65000Y40466D01*
X66044Y40603D01*
X67017Y41006D01*
X67853Y41647D01*
X68494Y42483D01*
X68897Y43456D01*
X69034Y44500D01*
X68897Y45544D01*
X68494Y46517D01*
X67853Y47353D01*
X67017Y47994D01*
X66044Y48397D01*
X65000Y48535D01*
D02*
G37*
G36*
X78500Y49460D02*
Y47000D01*
X80960D01*
X80923Y47283D01*
X80620Y48013D01*
X80140Y48640D01*
X79513Y49121D01*
X78783Y49423D01*
X78500Y49460D01*
D02*
G37*
G36*
X64500Y77500D02*
X61031D01*
X61103Y76956D01*
X61506Y75983D01*
X62147Y75147D01*
X62983Y74506D01*
X63956Y74103D01*
X64500Y74031D01*
Y77500D01*
D02*
G37*
G36*
X199472Y74000D02*
X196000D01*
Y70528D01*
X198453D01*
X198843Y70605D01*
X199174Y70826D01*
X199395Y71157D01*
X199472Y71547D01*
Y74000D01*
D02*
G37*
G36*
X195000Y78472D02*
X192547D01*
X192157Y78395D01*
X191826Y78174D01*
X191605Y77843D01*
X191528Y77453D01*
Y75000D01*
X195000D01*
Y78472D01*
D02*
G37*
G36*
X68969Y77500D02*
X65500D01*
Y74031D01*
X66044Y74103D01*
X67017Y74506D01*
X67853Y75147D01*
X68494Y75983D01*
X68897Y76956D01*
X68969Y77500D01*
D02*
G37*
G36*
X185460Y83500D02*
X179540D01*
X179577Y83217D01*
X179660Y83017D01*
X179617Y82888D01*
X179317Y82539D01*
X154500D01*
X153720Y82384D01*
X153058Y81942D01*
X141873Y70757D01*
X141282Y70679D01*
X140613Y70402D01*
X140039Y69961D01*
X139598Y69387D01*
X139321Y68718D01*
X139226Y68000D01*
X139321Y67282D01*
X139598Y66613D01*
X140039Y66039D01*
X140613Y65598D01*
X141282Y65321D01*
X142000Y65226D01*
X142718Y65321D01*
X143387Y65598D01*
X143961Y66039D01*
X144402Y66613D01*
X144679Y67282D01*
X144695Y67399D01*
X144794Y67453D01*
X145124Y67346D01*
X145360Y67188D01*
X145598Y66613D01*
X146039Y66039D01*
X146613Y65598D01*
X147282Y65321D01*
X148000Y65226D01*
X148718Y65321D01*
X149387Y65598D01*
X149961Y66039D01*
X150402Y66613D01*
X150679Y67282D01*
X150695Y67399D01*
X150794Y67453D01*
X151124Y67346D01*
X151360Y67188D01*
X151598Y66613D01*
X152039Y66039D01*
X152613Y65598D01*
X153282Y65321D01*
X154000Y65226D01*
X154718Y65321D01*
X155387Y65598D01*
X155961Y66039D01*
X156402Y66613D01*
X156479Y66800D01*
X157021D01*
X157098Y66613D01*
X157539Y66039D01*
X158113Y65598D01*
X158782Y65321D01*
X159500Y65226D01*
X160218Y65321D01*
X160887Y65598D01*
X161244Y65872D01*
X191641Y35475D01*
X191513Y34500D01*
X191649Y33468D01*
X192047Y32507D01*
X192681Y31681D01*
X193507Y31047D01*
X194468Y30649D01*
X195500Y30513D01*
X196532Y30649D01*
X197493Y31047D01*
X198319Y31681D01*
X198953Y32507D01*
X199351Y33468D01*
X199487Y34500D01*
X199351Y35532D01*
X198953Y36493D01*
X198319Y37319D01*
X197493Y37953D01*
X196532Y38351D01*
X195500Y38487D01*
X194525Y38359D01*
X163442Y69442D01*
X163414Y69461D01*
X163565Y69961D01*
X167155D01*
X191641Y45475D01*
X191513Y44500D01*
X191649Y43468D01*
X192047Y42507D01*
X192681Y41681D01*
X193507Y41047D01*
X194468Y40649D01*
X195500Y40513D01*
X196532Y40649D01*
X197493Y41047D01*
X198319Y41681D01*
X198953Y42507D01*
X199351Y43468D01*
X199487Y44500D01*
X199351Y45532D01*
X198953Y46493D01*
X198319Y47319D01*
X197493Y47953D01*
X196532Y48351D01*
X195500Y48487D01*
X194525Y48359D01*
X169442Y73442D01*
X169414Y73461D01*
X169565Y73961D01*
X173155D01*
X191641Y55475D01*
X191513Y54500D01*
X191649Y53468D01*
X192047Y52507D01*
X192681Y51681D01*
X193507Y51047D01*
X194468Y50649D01*
X195500Y50513D01*
X196532Y50649D01*
X197493Y51047D01*
X198319Y51681D01*
X198953Y52507D01*
X199351Y53468D01*
X199487Y54500D01*
X199351Y55532D01*
X198953Y56493D01*
X198319Y57319D01*
X197493Y57953D01*
X196532Y58351D01*
X195500Y58487D01*
X194525Y58359D01*
X175442Y77442D01*
X174780Y77884D01*
X174394Y77961D01*
X174443Y78461D01*
X178655D01*
X191641Y65475D01*
X191513Y64500D01*
X191649Y63468D01*
X192047Y62507D01*
X192681Y61681D01*
X193507Y61047D01*
X194468Y60649D01*
X195500Y60513D01*
X196532Y60649D01*
X197493Y61047D01*
X198319Y61681D01*
X198953Y62507D01*
X199351Y63468D01*
X199487Y64500D01*
X199351Y65532D01*
X198953Y66493D01*
X198319Y67319D01*
X197493Y67953D01*
X196532Y68351D01*
X195500Y68487D01*
X194525Y68358D01*
X192856Y70028D01*
X193063Y70528D01*
X195000D01*
Y74000D01*
X191528D01*
Y72063D01*
X191028Y71856D01*
X182347Y80537D01*
X182603Y80988D01*
X183283Y81077D01*
X184013Y81379D01*
X184640Y81860D01*
X185120Y82487D01*
X185423Y83217D01*
X185460Y83500D01*
D02*
G37*
G36*
X131551Y57077D02*
X130768Y56974D01*
X130038Y56672D01*
X129412Y56191D01*
X129295Y56039D01*
X111619D01*
X111513Y56121D01*
X110783Y56423D01*
X110000Y56526D01*
X109217Y56423D01*
X108487Y56121D01*
X107860Y55640D01*
X107379Y55013D01*
X107077Y54283D01*
X106974Y53500D01*
X107077Y52717D01*
X107379Y51987D01*
X107860Y51360D01*
X108487Y50880D01*
X109217Y50577D01*
X110000Y50474D01*
X110341Y50519D01*
X110692Y50061D01*
X110577Y49783D01*
X110474Y49000D01*
X110577Y48217D01*
X110880Y47487D01*
X111360Y46860D01*
X111987Y46380D01*
X111998Y46375D01*
X112073Y45803D01*
X111860Y45640D01*
X111380Y45013D01*
X111077Y44283D01*
X110974Y43500D01*
X111077Y42717D01*
X111380Y41987D01*
X111860Y41360D01*
X112487Y40879D01*
X113217Y40577D01*
X114000Y40474D01*
X114783Y40577D01*
X115513Y40879D01*
X116140Y41360D01*
X116217Y41461D01*
X128283D01*
X128360Y41360D01*
X128779Y41039D01*
X128609Y40539D01*
X127000D01*
X127000Y40539D01*
X126220Y40384D01*
X125558Y39942D01*
X125558Y39942D01*
X118625Y33009D01*
X118500Y33026D01*
X117717Y32923D01*
X116987Y32620D01*
X116360Y32140D01*
X115879Y31513D01*
X115577Y30783D01*
X115474Y30000D01*
X115577Y29217D01*
X115879Y28487D01*
X116360Y27860D01*
X116987Y27380D01*
X117717Y27077D01*
X118500Y26974D01*
X119283Y27077D01*
X120013Y27380D01*
X120640Y27860D01*
X121121Y28487D01*
X121423Y29217D01*
X121526Y30000D01*
X121509Y30125D01*
X127845Y36461D01*
X142028D01*
Y35547D01*
X142105Y35157D01*
X142326Y34826D01*
X142657Y34605D01*
X143047Y34528D01*
X148953D01*
X149343Y34605D01*
X149674Y34826D01*
X149895Y35157D01*
X149972Y35547D01*
Y41453D01*
X149895Y41843D01*
X149674Y42174D01*
X149343Y42395D01*
X148953Y42472D01*
X143047D01*
X142657Y42395D01*
X142326Y42174D01*
X142105Y41843D01*
X142028Y41453D01*
Y40539D01*
X132391D01*
X132221Y41039D01*
X132640Y41360D01*
X133121Y41987D01*
X133423Y42717D01*
X133526Y43500D01*
X133423Y44283D01*
X133121Y45013D01*
X132640Y45640D01*
X132013Y46121D01*
X131283Y46423D01*
X130994Y46461D01*
X131027Y46961D01*
X132783D01*
X132860Y46860D01*
X133487Y46380D01*
X134217Y46077D01*
X135000Y45974D01*
X135783Y46077D01*
X136513Y46380D01*
X137140Y46860D01*
X137620Y47487D01*
X137923Y48217D01*
X138026Y49000D01*
X137923Y49783D01*
X137620Y50513D01*
X137140Y51140D01*
X136513Y51621D01*
X135783Y51923D01*
X135000Y52026D01*
X134342Y51939D01*
X134105Y52240D01*
X134054Y52385D01*
X134172Y52538D01*
X134474Y53268D01*
X134577Y54051D01*
X134474Y54834D01*
X134172Y55564D01*
X133691Y56191D01*
X133064Y56672D01*
X132334Y56974D01*
X131551Y57077D01*
D02*
G37*
G36*
X9000Y74987D02*
X7968Y74851D01*
X7007Y74453D01*
X6181Y73819D01*
X5547Y72993D01*
X5149Y72032D01*
X5013Y71000D01*
X5149Y69968D01*
X5547Y69007D01*
X6181Y68181D01*
X7007Y67547D01*
X7968Y67149D01*
X9000Y67013D01*
X10032Y67149D01*
X10993Y67547D01*
X11819Y68181D01*
X12453Y69007D01*
X12851Y69968D01*
X12987Y71000D01*
X12851Y72032D01*
X12453Y72993D01*
X11819Y73819D01*
X10993Y74453D01*
X10032Y74851D01*
X9000Y74987D01*
D02*
G37*
G36*
X65000Y72035D02*
X63956Y71897D01*
X62983Y71494D01*
X62147Y70853D01*
X61506Y70017D01*
X61103Y69044D01*
X60966Y68000D01*
X61103Y66956D01*
X61506Y65983D01*
X62147Y65147D01*
X62983Y64506D01*
X63956Y64103D01*
X65000Y63965D01*
X66044Y64103D01*
X67017Y64506D01*
X67853Y65147D01*
X68494Y65983D01*
X68897Y66956D01*
X69034Y68000D01*
X68897Y69044D01*
X68494Y70017D01*
X67853Y70853D01*
X67017Y71494D01*
X66044Y71897D01*
X65000Y72035D01*
D02*
G37*
G36*
X139500Y97186D02*
X138417Y97043D01*
X137407Y96625D01*
X136540Y95960D01*
X135875Y95093D01*
X135853Y95039D01*
X126500D01*
X125720Y94884D01*
X125058Y94442D01*
X95558Y64942D01*
X95116Y64280D01*
X94961Y63500D01*
Y40717D01*
X94860Y40640D01*
X94380Y40013D01*
X94077Y39283D01*
X94039Y38994D01*
X93539Y39027D01*
Y89353D01*
X93593Y89375D01*
X94460Y90040D01*
X95125Y90907D01*
X95543Y91917D01*
X95686Y93000D01*
X95543Y94083D01*
X95125Y95093D01*
X94460Y95960D01*
X93593Y96625D01*
X92583Y97043D01*
X91500Y97186D01*
X90417Y97043D01*
X89407Y96625D01*
X88540Y95960D01*
X87875Y95093D01*
X87457Y94083D01*
X87314Y93000D01*
X87457Y91917D01*
X87875Y90907D01*
X88540Y90040D01*
X89407Y89375D01*
X89461Y89353D01*
Y34000D01*
X89616Y33220D01*
X89994Y32653D01*
X89974Y32500D01*
X90077Y31717D01*
X90380Y30987D01*
X90860Y30360D01*
X91487Y29880D01*
X92217Y29577D01*
X93000Y29474D01*
X93783Y29577D01*
X94513Y29880D01*
X95140Y30360D01*
X95621Y30987D01*
X95923Y31717D01*
X96026Y32500D01*
X95923Y33283D01*
X95621Y34013D01*
X95140Y34640D01*
X94513Y35120D01*
X93783Y35423D01*
X93539Y35455D01*
Y37973D01*
X94039Y38006D01*
X94077Y37717D01*
X94380Y36987D01*
X94860Y36360D01*
X95487Y35879D01*
X96217Y35577D01*
X97000Y35474D01*
X97783Y35577D01*
X98513Y35879D01*
X99140Y36360D01*
X99620Y36987D01*
X99923Y37717D01*
X100026Y38500D01*
X99923Y39283D01*
X99620Y40013D01*
X99140Y40640D01*
X99039Y40717D01*
Y62655D01*
X127345Y90961D01*
X135853D01*
X135875Y90907D01*
X136540Y90040D01*
X137407Y89375D01*
X138417Y88957D01*
X139500Y88814D01*
X140583Y88957D01*
X141593Y89375D01*
X142460Y90040D01*
X143125Y90907D01*
X143543Y91917D01*
X143686Y93000D01*
X143543Y94083D01*
X143125Y95093D01*
X142460Y95960D01*
X141593Y96625D01*
X140583Y97043D01*
X139500Y97186D01*
D02*
G37*
G36*
X87000Y14520D02*
X80000D01*
X79610Y14442D01*
X79279Y14221D01*
X79058Y13890D01*
X78980Y13500D01*
Y8500D01*
X79058Y8110D01*
X79279Y7779D01*
X79610Y7558D01*
X80000Y7480D01*
X87000D01*
X87390Y7558D01*
X87721Y7779D01*
X87942Y8110D01*
X88020Y8500D01*
Y13500D01*
X87942Y13890D01*
X87721Y14221D01*
X87390Y14442D01*
X87000Y14520D01*
D02*
G37*
G36*
X77000D02*
X70000D01*
X69610Y14442D01*
X69279Y14221D01*
X69058Y13890D01*
X68980Y13500D01*
Y8500D01*
X69058Y8110D01*
X69279Y7779D01*
X69610Y7558D01*
X70000Y7480D01*
X77000D01*
X77390Y7558D01*
X77721Y7779D01*
X77942Y8110D01*
X78020Y8500D01*
Y13500D01*
X77942Y13890D01*
X77721Y14221D01*
X77390Y14442D01*
X77000Y14520D01*
D02*
G37*
G36*
X156000Y22487D02*
X154968Y22351D01*
X154007Y21953D01*
X153181Y21319D01*
X152547Y20493D01*
X152149Y19532D01*
X152013Y18500D01*
X152149Y17468D01*
X152547Y16507D01*
X153181Y15681D01*
X154007Y15047D01*
X154968Y14649D01*
X156000Y14513D01*
X157032Y14649D01*
X157993Y15047D01*
X158819Y15681D01*
X159453Y16507D01*
X159851Y17468D01*
X159987Y18500D01*
X159851Y19532D01*
X159453Y20493D01*
X158819Y21319D01*
X157993Y21953D01*
X157032Y22351D01*
X156000Y22487D01*
D02*
G37*
G36*
X146000D02*
X144968Y22351D01*
X144007Y21953D01*
X143181Y21319D01*
X142547Y20493D01*
X142149Y19532D01*
X142013Y18500D01*
X142149Y17468D01*
X142547Y16507D01*
X143181Y15681D01*
X144007Y15047D01*
X144968Y14649D01*
X146000Y14513D01*
X147032Y14649D01*
X147993Y15047D01*
X148819Y15681D01*
X149453Y16507D01*
X149851Y17468D01*
X149987Y18500D01*
X149851Y19532D01*
X149453Y20493D01*
X148819Y21319D01*
X147993Y21953D01*
X147032Y22351D01*
X146000Y22487D01*
D02*
G37*
G36*
X194500Y23034D02*
X192774Y22898D01*
X191090Y22494D01*
X189491Y21831D01*
X188014Y20927D01*
X186698Y19802D01*
X185573Y18486D01*
X184669Y17009D01*
X184006Y15410D01*
X183602Y13726D01*
X183466Y12000D01*
X183602Y10274D01*
X184006Y8590D01*
X184669Y6991D01*
X185573Y5514D01*
X186698Y4198D01*
X188014Y3073D01*
X189491Y2169D01*
X191090Y1506D01*
X192774Y1102D01*
X194500Y966D01*
X196226Y1102D01*
X197910Y1506D01*
X199509Y2169D01*
X200986Y3073D01*
X202302Y4198D01*
X203427Y5514D01*
X204331Y6991D01*
X204994Y8590D01*
X205398Y10274D01*
X205534Y12000D01*
X205398Y13726D01*
X204994Y15410D01*
X204331Y17009D01*
X203427Y18486D01*
X202302Y19802D01*
X200986Y20927D01*
X199509Y21831D01*
X197910Y22494D01*
X196226Y22898D01*
X194500Y23034D01*
D02*
G37*
G36*
X12000D02*
X10274Y22898D01*
X8590Y22494D01*
X6991Y21831D01*
X5514Y20927D01*
X4198Y19802D01*
X3073Y18486D01*
X2169Y17009D01*
X1506Y15410D01*
X1102Y13726D01*
X966Y12000D01*
X1102Y10274D01*
X1506Y8590D01*
X2169Y6991D01*
X3073Y5514D01*
X4198Y4198D01*
X5514Y3073D01*
X6991Y2169D01*
X8590Y1506D01*
X10274Y1102D01*
X12000Y966D01*
X13726Y1102D01*
X15410Y1506D01*
X17009Y2169D01*
X18486Y3073D01*
X19802Y4198D01*
X20927Y5514D01*
X21831Y6991D01*
X22494Y8590D01*
X22898Y10274D01*
X23034Y12000D01*
X22898Y13726D01*
X22494Y15410D01*
X21831Y17009D01*
X20927Y18486D01*
X19802Y19802D01*
X18486Y20927D01*
X17009Y21831D01*
X15410Y22494D01*
X13726Y22898D01*
X12000Y23034D01*
D02*
G37*
G36*
X66000Y14520D02*
X59000D01*
X58610Y14442D01*
X58279Y14221D01*
X58058Y13890D01*
X57980Y13500D01*
Y8500D01*
X58058Y8110D01*
X58279Y7779D01*
X58610Y7558D01*
X59000Y7480D01*
X66000D01*
X66390Y7558D01*
X66721Y7779D01*
X66942Y8110D01*
X67020Y8500D01*
Y13500D01*
X66942Y13890D01*
X66721Y14221D01*
X66390Y14442D01*
X66000Y14520D01*
D02*
G37*
G36*
X56000D02*
X49000D01*
X48610Y14442D01*
X48279Y14221D01*
X48058Y13890D01*
X47980Y13500D01*
Y8500D01*
X48058Y8110D01*
X48279Y7779D01*
X48610Y7558D01*
X49000Y7480D01*
X56000D01*
X56390Y7558D01*
X56721Y7779D01*
X56942Y8110D01*
X57020Y8500D01*
Y13500D01*
X56942Y13890D01*
X56721Y14221D01*
X56390Y14442D01*
X56000Y14520D01*
D02*
G37*
G36*
X103500Y62526D02*
X102717Y62423D01*
X101987Y62120D01*
X101360Y61640D01*
X100880Y61013D01*
X100577Y60283D01*
X100474Y59500D01*
X100577Y58717D01*
X100880Y57987D01*
X101360Y57360D01*
X101461Y57283D01*
Y24500D01*
X101616Y23720D01*
X102058Y23058D01*
X106491Y18625D01*
X106474Y18500D01*
X106577Y17717D01*
X106879Y16987D01*
X107360Y16360D01*
X107987Y15879D01*
X108717Y15577D01*
X109500Y15474D01*
X110283Y15577D01*
X111013Y15879D01*
X111640Y16360D01*
X112120Y16987D01*
X112423Y17717D01*
X112526Y18500D01*
X112423Y19283D01*
X112120Y20013D01*
X111640Y20640D01*
X111013Y21121D01*
X110283Y21423D01*
X109500Y21526D01*
X109374Y21509D01*
X105539Y25345D01*
Y57283D01*
X105640Y57360D01*
X106121Y57987D01*
X106423Y58717D01*
X106526Y59500D01*
X106423Y60283D01*
X106121Y61013D01*
X105640Y61640D01*
X105013Y62120D01*
X104283Y62423D01*
X103500Y62526D01*
D02*
G37*
G36*
X42500Y39020D02*
X32500D01*
X32110Y38942D01*
X31779Y38721D01*
X31558Y38390D01*
X31480Y38000D01*
Y28000D01*
X31558Y27610D01*
X31779Y27279D01*
X32110Y27058D01*
X32500Y26980D01*
X42500D01*
X42890Y27058D01*
X43221Y27279D01*
X43442Y27610D01*
X43520Y28000D01*
Y38000D01*
X43442Y38390D01*
X43221Y38721D01*
X42890Y38942D01*
X42500Y39020D01*
D02*
G37*
G36*
X27500D02*
X17500D01*
X17110Y38942D01*
X16779Y38721D01*
X16558Y38390D01*
X16480Y38000D01*
Y28000D01*
X16558Y27610D01*
X16779Y27279D01*
X17110Y27058D01*
X17500Y26980D01*
X27500D01*
X27890Y27058D01*
X28221Y27279D01*
X28442Y27610D01*
X28520Y28000D01*
Y38000D01*
X28442Y38390D01*
X28221Y38721D01*
X27890Y38942D01*
X27500Y39020D01*
D02*
G37*
G36*
X159921Y38000D02*
X156500D01*
Y34579D01*
X157032Y34649D01*
X157993Y35047D01*
X158819Y35681D01*
X159453Y36507D01*
X159851Y37468D01*
X159921Y38000D01*
D02*
G37*
G36*
X155500D02*
X152079D01*
X152149Y37468D01*
X152547Y36507D01*
X153181Y35681D01*
X154007Y35047D01*
X154968Y34649D01*
X155500Y34579D01*
Y38000D01*
D02*
G37*
G36*
X80000Y29520D02*
X75000D01*
X74610Y29442D01*
X74279Y29221D01*
X74058Y28890D01*
X73980Y28500D01*
Y23500D01*
X74058Y23110D01*
X74279Y22779D01*
X74610Y22558D01*
X75000Y22480D01*
X80000D01*
X80390Y22558D01*
X80721Y22779D01*
X80942Y23110D01*
X81020Y23500D01*
Y28500D01*
X80942Y28890D01*
X80721Y29221D01*
X80390Y29442D01*
X80000Y29520D01*
D02*
G37*
G36*
X61000D02*
X56000D01*
X55610Y29442D01*
X55279Y29221D01*
X55058Y28890D01*
X54980Y28500D01*
Y23500D01*
X55058Y23110D01*
X55279Y22779D01*
X55610Y22558D01*
X56000Y22480D01*
X61000D01*
X61390Y22558D01*
X61721Y22779D01*
X61942Y23110D01*
X62020Y23500D01*
Y28500D01*
X61942Y28890D01*
X61721Y29221D01*
X61390Y29442D01*
X61000Y29520D01*
D02*
G37*
G36*
X156000Y32487D02*
X154968Y32351D01*
X154007Y31953D01*
X153181Y31319D01*
X152547Y30493D01*
X152149Y29532D01*
X152013Y28500D01*
X152149Y27468D01*
X152547Y26507D01*
X153181Y25681D01*
X154007Y25047D01*
X154968Y24649D01*
X156000Y24513D01*
X157032Y24649D01*
X157993Y25047D01*
X158819Y25681D01*
X159453Y26507D01*
X159851Y27468D01*
X159987Y28500D01*
X159851Y29532D01*
X159453Y30493D01*
X158819Y31319D01*
X157993Y31953D01*
X157032Y32351D01*
X156000Y32487D01*
D02*
G37*
G36*
X146000D02*
X144968Y32351D01*
X144007Y31953D01*
X143181Y31319D01*
X142547Y30493D01*
X142149Y29532D01*
X142013Y28500D01*
X142149Y27468D01*
X142547Y26507D01*
X143181Y25681D01*
X144007Y25047D01*
X144968Y24649D01*
X146000Y24513D01*
X147032Y24649D01*
X147993Y25047D01*
X148819Y25681D01*
X149453Y26507D01*
X149851Y27468D01*
X149987Y28500D01*
X149851Y29532D01*
X149453Y30493D01*
X148819Y31319D01*
X147993Y31953D01*
X147032Y32351D01*
X146000Y32487D01*
D02*
G37*
G36*
X23620Y110500D02*
X20000D01*
Y106880D01*
X20583Y106957D01*
X21593Y107375D01*
X22460Y108040D01*
X23125Y108907D01*
X23543Y109917D01*
X23620Y110500D01*
D02*
G37*
G36*
X163000D02*
X159380D01*
X159457Y109917D01*
X159875Y108907D01*
X160540Y108040D01*
X161407Y107375D01*
X162417Y106957D01*
X163000Y106880D01*
Y110500D01*
D02*
G37*
G36*
X119620D02*
X116000D01*
Y106880D01*
X116583Y106957D01*
X117593Y107375D01*
X118460Y108040D01*
X119125Y108907D01*
X119543Y109917D01*
X119620Y110500D01*
D02*
G37*
G36*
X71620D02*
X68000D01*
Y106880D01*
X68583Y106957D01*
X69593Y107375D01*
X70460Y108040D01*
X71125Y108907D01*
X71543Y109917D01*
X71620Y110500D01*
D02*
G37*
G36*
X115000D02*
X111380D01*
X111457Y109917D01*
X111875Y108907D01*
X112540Y108040D01*
X113407Y107375D01*
X114417Y106957D01*
X115000Y106880D01*
Y110500D01*
D02*
G37*
G36*
X139500Y115186D02*
X138417Y115043D01*
X137407Y114625D01*
X136540Y113960D01*
X135875Y113093D01*
X135457Y112083D01*
X135314Y111000D01*
X135457Y109917D01*
X135875Y108907D01*
X136540Y108040D01*
X137407Y107375D01*
X138417Y106957D01*
X139500Y106814D01*
X140583Y106957D01*
X141593Y107375D01*
X142460Y108040D01*
X143125Y108907D01*
X143543Y109917D01*
X143686Y111000D01*
X143543Y112083D01*
X143125Y113093D01*
X142460Y113960D01*
X141593Y114625D01*
X140583Y115043D01*
X139500Y115186D01*
D02*
G37*
G36*
X91500D02*
X90417Y115043D01*
X89407Y114625D01*
X88540Y113960D01*
X87875Y113093D01*
X87457Y112083D01*
X87314Y111000D01*
X87457Y109917D01*
X87875Y108907D01*
X88540Y108040D01*
X89407Y107375D01*
X90417Y106957D01*
X91500Y106814D01*
X92583Y106957D01*
X93593Y107375D01*
X94460Y108040D01*
X95125Y108907D01*
X95543Y109917D01*
X95686Y111000D01*
X95543Y112083D01*
X95125Y113093D01*
X94460Y113960D01*
X93593Y114625D01*
X92583Y115043D01*
X91500Y115186D01*
D02*
G37*
G36*
X67000Y110500D02*
X63380D01*
X63457Y109917D01*
X63875Y108907D01*
X64540Y108040D01*
X65407Y107375D01*
X66417Y106957D01*
X67000Y106880D01*
Y110500D01*
D02*
G37*
G36*
X19000D02*
X15380D01*
X15457Y109917D01*
X15875Y108907D01*
X16540Y108040D01*
X17407Y107375D01*
X18417Y106957D01*
X19000Y106880D01*
Y110500D01*
D02*
G37*
G36*
X68000Y115120D02*
Y111500D01*
X71620D01*
X71543Y112083D01*
X71125Y113093D01*
X70460Y113960D01*
X69593Y114625D01*
X68583Y115043D01*
X68000Y115120D01*
D02*
G37*
G36*
X164000D02*
Y111500D01*
X167620D01*
X167543Y112083D01*
X167125Y113093D01*
X166460Y113960D01*
X165593Y114625D01*
X164583Y115043D01*
X164000Y115120D01*
D02*
G37*
G36*
X194500Y135034D02*
X192774Y134898D01*
X191090Y134494D01*
X189491Y133831D01*
X188014Y132927D01*
X186698Y131802D01*
X185573Y130486D01*
X184669Y129009D01*
X184006Y127410D01*
X183602Y125726D01*
X183466Y124000D01*
X183602Y122274D01*
X184006Y120590D01*
X184669Y118991D01*
X185573Y117514D01*
X186698Y116198D01*
X187320Y115666D01*
X187164Y115142D01*
X186417Y115043D01*
X185407Y114625D01*
X184540Y113960D01*
X183875Y113093D01*
X183457Y112083D01*
X183314Y111000D01*
X183457Y109917D01*
X183875Y108907D01*
X184540Y108040D01*
X185407Y107375D01*
X186417Y106957D01*
X187500Y106814D01*
X188583Y106957D01*
X189593Y107375D01*
X190460Y108040D01*
X191125Y108907D01*
X191543Y109917D01*
X191686Y111000D01*
X191543Y112083D01*
X191175Y112971D01*
X191371Y113288D01*
X191517Y113404D01*
X192774Y113102D01*
X194500Y112966D01*
X196226Y113102D01*
X197910Y113506D01*
X199509Y114169D01*
X200986Y115073D01*
X202302Y116198D01*
X203427Y117514D01*
X204331Y118991D01*
X204994Y120590D01*
X205398Y122274D01*
X205534Y124000D01*
X205398Y125726D01*
X204994Y127410D01*
X204331Y129009D01*
X203427Y130486D01*
X202302Y131802D01*
X200986Y132927D01*
X199509Y133831D01*
X197910Y134494D01*
X196226Y134898D01*
X194500Y135034D01*
D02*
G37*
G36*
X116000Y115120D02*
Y111500D01*
X119620D01*
X119543Y112083D01*
X119125Y113093D01*
X118460Y113960D01*
X117593Y114625D01*
X116583Y115043D01*
X116000Y115120D01*
D02*
G37*
G36*
X67000D02*
X66417Y115043D01*
X65407Y114625D01*
X64540Y113960D01*
X63875Y113093D01*
X63457Y112083D01*
X63380Y111500D01*
X67000D01*
Y115120D01*
D02*
G37*
G36*
X12000Y135034D02*
X10274Y134898D01*
X8590Y134494D01*
X6991Y133831D01*
X5514Y132927D01*
X4198Y131802D01*
X3073Y130486D01*
X2169Y129009D01*
X1506Y127410D01*
X1102Y125726D01*
X966Y124000D01*
X1102Y122274D01*
X1506Y120590D01*
X2169Y118991D01*
X3073Y117514D01*
X4198Y116198D01*
X5514Y115073D01*
X6991Y114169D01*
X8590Y113506D01*
X10274Y113102D01*
X12000Y112966D01*
X13726Y113102D01*
X15410Y113506D01*
X15633Y113598D01*
X15948Y113188D01*
X15875Y113093D01*
X15457Y112083D01*
X15380Y111500D01*
X19500D01*
Y111000D01*
D01*
Y111500D01*
X23620D01*
X23543Y112083D01*
X23125Y113093D01*
X22460Y113960D01*
X21593Y114625D01*
X20583Y115043D01*
X19500Y115186D01*
X19367Y115168D01*
X19155Y115645D01*
X19802Y116198D01*
X20927Y117514D01*
X21831Y118991D01*
X22494Y120590D01*
X22898Y122274D01*
X23034Y124000D01*
X22898Y125726D01*
X22494Y127410D01*
X21831Y129009D01*
X20927Y130486D01*
X19802Y131802D01*
X18486Y132927D01*
X17009Y133831D01*
X15410Y134494D01*
X13726Y134898D01*
X12000Y135034D01*
D02*
G37*
G36*
X167620Y110500D02*
X164000D01*
Y106880D01*
X164583Y106957D01*
X165593Y107375D01*
X166460Y108040D01*
X167125Y108907D01*
X167543Y109917D01*
X167620Y110500D01*
D02*
G37*
G36*
X115000Y115120D02*
X114417Y115043D01*
X113407Y114625D01*
X112540Y113960D01*
X111875Y113093D01*
X111457Y112083D01*
X111380Y111500D01*
X115000D01*
Y115120D01*
D02*
G37*
G36*
X163000D02*
X162417Y115043D01*
X161407Y114625D01*
X160540Y113960D01*
X159875Y113093D01*
X159457Y112083D01*
X159380Y111500D01*
X163000D01*
Y115120D01*
D02*
G37*
G36*
X8500Y84921D02*
X7968Y84851D01*
X7007Y84453D01*
X6181Y83819D01*
X5547Y82993D01*
X5149Y82032D01*
X5079Y81500D01*
X8500D01*
Y84921D01*
D02*
G37*
G36*
X65500Y81969D02*
Y78500D01*
X68969D01*
X68897Y79044D01*
X68494Y80017D01*
X67853Y80853D01*
X67017Y81494D01*
X66044Y81897D01*
X65500Y81969D01*
D02*
G37*
G36*
X182000Y86960D02*
X181717Y86923D01*
X180987Y86620D01*
X180360Y86140D01*
X179879Y85513D01*
X179577Y84783D01*
X179540Y84500D01*
X182000D01*
Y86960D01*
D02*
G37*
G36*
X9500Y84921D02*
Y81500D01*
X12921D01*
X12851Y82032D01*
X12453Y82993D01*
X11819Y83819D01*
X10993Y84453D01*
X10032Y84851D01*
X9500Y84921D01*
D02*
G37*
G36*
X64500Y81969D02*
X63956Y81897D01*
X62983Y81494D01*
X62147Y80853D01*
X61506Y80017D01*
X61103Y79044D01*
X61031Y78500D01*
X64500D01*
Y81969D01*
D02*
G37*
G36*
X80000Y103026D02*
X79217Y102923D01*
X78487Y102620D01*
X77860Y102140D01*
X77380Y101513D01*
X77077Y100783D01*
X76974Y100000D01*
X77077Y99217D01*
X77380Y98487D01*
X77860Y97860D01*
X77961Y97783D01*
Y76507D01*
X77461Y76277D01*
X77013Y76621D01*
X76283Y76923D01*
X75500Y77026D01*
X74717Y76923D01*
X73987Y76621D01*
X73360Y76140D01*
X72879Y75513D01*
X72577Y74783D01*
X72474Y74000D01*
X72577Y73217D01*
X72879Y72487D01*
X73360Y71860D01*
X73461Y71783D01*
Y65845D01*
X70655Y63039D01*
X12418D01*
X11819Y63819D01*
X10993Y64453D01*
X10032Y64851D01*
X9000Y64987D01*
X7968Y64851D01*
X7007Y64453D01*
X6181Y63819D01*
X5547Y62993D01*
X5149Y62032D01*
X5013Y61000D01*
X5149Y59968D01*
X5547Y59007D01*
X6181Y58181D01*
X7007Y57547D01*
X7968Y57149D01*
X9000Y57013D01*
X10032Y57149D01*
X10993Y57547D01*
X11819Y58181D01*
X12418Y58961D01*
X64407D01*
X64440Y58461D01*
X63956Y58397D01*
X62983Y57994D01*
X62147Y57353D01*
X61506Y56517D01*
X61103Y55544D01*
X60966Y54500D01*
X61103Y53456D01*
X61506Y52483D01*
X62147Y51647D01*
X62983Y51006D01*
X63956Y50603D01*
X65000Y50466D01*
X66044Y50603D01*
X67017Y51006D01*
X67853Y51647D01*
X68494Y52483D01*
X68897Y53456D01*
X69034Y54500D01*
X68897Y55544D01*
X68494Y56517D01*
X67853Y57353D01*
X67017Y57994D01*
X66044Y58397D01*
X65560Y58461D01*
X65593Y58961D01*
X71500D01*
X72280Y59116D01*
X72942Y59558D01*
X76942Y63558D01*
X77384Y64220D01*
X77461Y64606D01*
X77961Y64557D01*
Y58217D01*
X77860Y58140D01*
X77380Y57513D01*
X77077Y56783D01*
X76974Y56000D01*
X77077Y55217D01*
X77380Y54487D01*
X77860Y53860D01*
X78487Y53379D01*
X79217Y53077D01*
X80000Y52974D01*
X80783Y53077D01*
X81513Y53379D01*
X82140Y53860D01*
X82621Y54487D01*
X82923Y55217D01*
X83026Y56000D01*
X82923Y56783D01*
X82621Y57513D01*
X82140Y58140D01*
X82039Y58217D01*
Y97783D01*
X82140Y97860D01*
X82621Y98487D01*
X82923Y99217D01*
X83026Y100000D01*
X82923Y100783D01*
X82621Y101513D01*
X82140Y102140D01*
X81513Y102620D01*
X80783Y102923D01*
X80000Y103026D01*
D02*
G37*
G36*
X198453Y78472D02*
X196000D01*
Y75000D01*
X199472D01*
Y77453D01*
X199395Y77843D01*
X199174Y78174D01*
X198843Y78395D01*
X198453Y78472D01*
D02*
G37*
G36*
X12921Y80500D02*
X9500D01*
Y77079D01*
X10032Y77149D01*
X10993Y77547D01*
X11819Y78181D01*
X12453Y79007D01*
X12851Y79968D01*
X12921Y80500D01*
D02*
G37*
G36*
X8500D02*
X5079D01*
X5149Y79968D01*
X5547Y79007D01*
X6181Y78181D01*
X7007Y77547D01*
X7968Y77149D01*
X8500Y77079D01*
Y80500D01*
D02*
G37*
G36*
X163500Y97186D02*
X162417Y97043D01*
X161407Y96625D01*
X160540Y95960D01*
X159875Y95093D01*
X159457Y94083D01*
X159314Y93000D01*
X159457Y91917D01*
X159875Y90907D01*
X160540Y90040D01*
X161407Y89375D01*
X162417Y88957D01*
X163500Y88814D01*
X164583Y88957D01*
X165593Y89375D01*
X166460Y90040D01*
X167125Y90907D01*
X167543Y91917D01*
X167686Y93000D01*
X167543Y94083D01*
X167125Y95093D01*
X166460Y95960D01*
X165593Y96625D01*
X164583Y97043D01*
X163500Y97186D01*
D02*
G37*
G36*
X115500D02*
X114417Y97043D01*
X113407Y96625D01*
X112540Y95960D01*
X111875Y95093D01*
X111457Y94083D01*
X111314Y93000D01*
X111457Y91917D01*
X111875Y90907D01*
X112540Y90040D01*
X113407Y89375D01*
X114417Y88957D01*
X115500Y88814D01*
X116583Y88957D01*
X117593Y89375D01*
X118460Y90040D01*
X119125Y90907D01*
X119543Y91917D01*
X119686Y93000D01*
X119543Y94083D01*
X119125Y95093D01*
X118460Y95960D01*
X117593Y96625D01*
X116583Y97043D01*
X115500Y97186D01*
D02*
G37*
G36*
X43500Y115186D02*
X42417Y115043D01*
X41407Y114625D01*
X40540Y113960D01*
X39875Y113093D01*
X39457Y112083D01*
X39314Y111000D01*
X39457Y109917D01*
X39875Y108907D01*
X40540Y108040D01*
X41407Y107375D01*
X42417Y106957D01*
X43500Y106814D01*
X44583Y106957D01*
X45593Y107375D01*
X46460Y108040D01*
X47125Y108907D01*
X47543Y109917D01*
X47686Y111000D01*
X47543Y112083D01*
X47125Y113093D01*
X46460Y113960D01*
X45593Y114625D01*
X44583Y115043D01*
X43500Y115186D01*
D02*
G37*
G36*
X187500Y97186D02*
X186417Y97043D01*
X185407Y96625D01*
X184540Y95960D01*
X183875Y95093D01*
X183457Y94083D01*
X183314Y93000D01*
X183457Y91917D01*
X183875Y90907D01*
X184540Y90040D01*
X185407Y89375D01*
X186417Y88957D01*
X187500Y88814D01*
X188583Y88957D01*
X189593Y89375D01*
X190460Y90040D01*
X191125Y90907D01*
X191543Y91917D01*
X191686Y93000D01*
X191543Y94083D01*
X191125Y95093D01*
X190460Y95960D01*
X189593Y96625D01*
X188583Y97043D01*
X187500Y97186D01*
D02*
G37*
G36*
X67500D02*
X66417Y97043D01*
X65407Y96625D01*
X64540Y95960D01*
X63875Y95093D01*
X63457Y94083D01*
X63314Y93000D01*
X63457Y91917D01*
X63875Y90907D01*
X64540Y90040D01*
X65407Y89375D01*
X66417Y88957D01*
X67500Y88814D01*
X68583Y88957D01*
X69593Y89375D01*
X70460Y90040D01*
X71125Y90907D01*
X71543Y91917D01*
X71686Y93000D01*
X71543Y94083D01*
X71125Y95093D01*
X70460Y95960D01*
X69593Y96625D01*
X68583Y97043D01*
X67500Y97186D01*
D02*
G37*
G36*
X11953Y94972D02*
X6047D01*
X5657Y94895D01*
X5326Y94674D01*
X5105Y94343D01*
X5028Y93953D01*
Y88047D01*
X5105Y87657D01*
X5326Y87326D01*
X5657Y87105D01*
X6047Y87028D01*
X11953D01*
X12343Y87105D01*
X12674Y87326D01*
X12895Y87657D01*
X12972Y88047D01*
Y93953D01*
X12895Y94343D01*
X12674Y94674D01*
X12343Y94895D01*
X11953Y94972D01*
D02*
G37*
G36*
X183000Y86960D02*
Y84500D01*
X185460D01*
X185423Y84783D01*
X185120Y85513D01*
X184640Y86140D01*
X184013Y86620D01*
X183283Y86923D01*
X183000Y86960D01*
D02*
G37*
G36*
X43500Y97186D02*
X42417Y97043D01*
X41407Y96625D01*
X40540Y95960D01*
X39875Y95093D01*
X39457Y94083D01*
X39314Y93000D01*
X39457Y91917D01*
X39875Y90907D01*
X40540Y90040D01*
X41407Y89375D01*
X42417Y88957D01*
X43500Y88814D01*
X44583Y88957D01*
X45593Y89375D01*
X46460Y90040D01*
X47125Y90907D01*
X47543Y91917D01*
X47686Y93000D01*
X47543Y94083D01*
X47125Y95093D01*
X46460Y95960D01*
X45593Y96625D01*
X44583Y97043D01*
X43500Y97186D01*
D02*
G37*
G36*
X19500D02*
X18417Y97043D01*
X17407Y96625D01*
X16540Y95960D01*
X15875Y95093D01*
X15457Y94083D01*
X15314Y93000D01*
X15457Y91917D01*
X15875Y90907D01*
X16540Y90040D01*
X17407Y89375D01*
X18417Y88957D01*
X19500Y88814D01*
X20583Y88957D01*
X21593Y89375D01*
X22460Y90040D01*
X23125Y90907D01*
X23543Y91917D01*
X23686Y93000D01*
X23543Y94083D01*
X23125Y95093D01*
X22460Y95960D01*
X21593Y96625D01*
X20583Y97043D01*
X19500Y97186D01*
D02*
G37*
%LPD*%
D17*
X179500Y80500D02*
X195500Y64500D01*
X154500Y80500D02*
X179500D01*
X174000Y76000D02*
X195500Y54500D01*
X156000Y76000D02*
X174000D01*
X168000Y72000D02*
X195500Y44500D01*
X158000Y72000D02*
X168000D01*
X162000Y68000D02*
X195500Y34500D01*
X159500Y68000D02*
X162000D01*
X148000D02*
X156000Y76000D01*
X142000Y68000D02*
X154500Y80500D01*
X154000Y68000D02*
X158000Y72000D01*
X118500Y30000D02*
X127000Y38500D01*
X146000D01*
X113500Y49000D02*
X135000D01*
X114000Y43500D02*
X130500D01*
X103500Y24500D02*
X109500Y18500D01*
X110000Y54000D02*
X131500D01*
X91500Y34000D02*
X93000Y32500D01*
X91500Y34000D02*
Y93000D01*
X80000Y56000D02*
Y100000D01*
X97000Y38500D02*
Y63500D01*
X126500Y93000D01*
X139500D01*
X138500Y92500D02*
X139500Y91500D01*
X103500Y24500D02*
Y59500D01*
X9000Y61000D02*
X71500D01*
X75500Y65000D01*
Y74000D01*
D21*
X43500Y111000D02*
D03*
X19500Y93000D02*
D03*
Y111000D02*
D03*
X43500Y93000D02*
D03*
X187500Y111000D02*
D03*
X163500Y93000D02*
D03*
Y111000D02*
D03*
X187500Y93000D02*
D03*
X139500Y111000D02*
D03*
X115500Y93000D02*
D03*
Y111000D02*
D03*
X139500Y93000D02*
D03*
X91500Y111000D02*
D03*
X67500Y93000D02*
D03*
Y111000D02*
D03*
X91500Y93000D02*
D03*
D22*
X25500Y46000D02*
D03*
X37500D02*
D03*
D23*
Y33000D02*
D03*
X22500D02*
D03*
D24*
X77500Y26000D02*
D03*
X58500D02*
D03*
D25*
X83500Y11000D02*
D03*
X73500D02*
D03*
X52500D02*
D03*
X62500D02*
D03*
D26*
X156000Y18500D02*
D03*
X146000D02*
D03*
X156000Y28500D02*
D03*
X146000D02*
D03*
X156000Y38500D02*
D03*
X9000Y61000D02*
D03*
Y71000D02*
D03*
Y81000D02*
D03*
X195500Y64500D02*
D03*
Y54500D02*
D03*
Y44500D02*
D03*
Y34500D02*
D03*
D27*
X146000Y38500D02*
D03*
X9000Y91000D02*
D03*
X195500Y74500D02*
D03*
D28*
X65000Y44500D02*
D03*
Y54500D02*
D03*
Y78000D02*
D03*
Y68000D02*
D03*
D29*
X47492Y77555D02*
D03*
X182500Y84000D02*
D03*
X78000Y46500D02*
D03*
X118500Y30000D02*
D03*
X131551Y54051D02*
D03*
X130500Y43500D02*
D03*
X135000Y49000D02*
D03*
X110000Y53500D02*
D03*
X113500Y49000D02*
D03*
X114000Y43500D02*
D03*
X93000Y32500D02*
D03*
X109500Y18500D02*
D03*
X97000Y38500D02*
D03*
X80000Y100000D02*
D03*
Y56000D02*
D03*
X103500Y59500D02*
D03*
X75500Y74000D02*
D03*
D30*
X154000Y68000D02*
D03*
X159500D02*
D03*
X148000D02*
D03*
X142000D02*
D03*
M02*
