G04 Layer_Color=32896*
%FSLAX25Y25*%
%MOIN*%
G70*
G01*
G75*
%ADD31C,0.01000*%
%ADD33C,0.00800*%
%ADD35C,0.00787*%
%ADD36C,0.00500*%
D31*
X12500Y45999D02*
X16499D01*
X46500Y46499D02*
X50499D01*
X48499Y48498D02*
Y44500D01*
D33*
X26000Y51500D02*
G03*
X26000Y40500I0J-5500D01*
G01*
X37000D02*
G03*
X37000Y51500I0J5500D01*
G01*
X26000Y40500D02*
X37500D01*
X26000Y51500D02*
X37500D01*
D35*
X4000Y96000D02*
X14000D01*
X4000Y56000D02*
Y96000D01*
X14000Y56000D02*
Y96000D01*
X4000Y56000D02*
X14000D01*
X190500Y29500D02*
X200500D01*
Y79500D01*
X190500Y29500D02*
Y79500D01*
X200500D01*
D36*
X12001Y100999D02*
X13000D01*
X12501D01*
Y98500D01*
X13000Y98000D01*
X13500D01*
X14000Y98500D01*
X9002Y98000D02*
X11001D01*
X9002Y99999D01*
Y100499D01*
X9501Y100999D01*
X10501D01*
X11001Y100499D01*
X198501Y26499D02*
X199500D01*
X199001D01*
Y24000D01*
X199500Y23500D01*
X200000D01*
X200500Y24000D01*
X197501Y23500D02*
X196501D01*
X197001D01*
Y26499D01*
X197501Y25999D01*
X170001Y119499D02*
X170501Y119999D01*
X171500D01*
X172000Y119499D01*
Y118999D01*
X171500Y118500D01*
X170501D01*
X170001Y118000D01*
Y117500D01*
X170501Y117000D01*
X171500D01*
X172000Y117500D01*
X169001Y117000D02*
X167002Y118999D01*
X166002Y117000D02*
Y119999D01*
X164003Y117000D01*
Y119999D01*
X163003Y118999D02*
X162503D01*
Y118500D01*
X163003D01*
Y118999D01*
Y117500D02*
X162503D01*
Y117000D01*
X163003D01*
Y117500D01*
X157505Y119499D02*
X157005Y119999D01*
X156005D01*
X155505Y119499D01*
Y118999D01*
X156005Y118500D01*
X156505D01*
X156005D01*
X155505Y118000D01*
Y117500D01*
X156005Y117000D01*
X157005D01*
X157505Y117500D01*
X154506Y119499D02*
X154006Y119999D01*
X153006D01*
X152506Y119499D01*
Y117500D01*
X153006Y117000D01*
X154006D01*
X154506Y117500D01*
Y119499D01*
X149507Y119999D02*
X151507D01*
Y118500D01*
X150507Y118999D01*
X150007D01*
X149507Y118500D01*
Y117500D01*
X150007Y117000D01*
X151007D01*
X151507Y117500D01*
X148508Y119499D02*
X148008Y119999D01*
X147008D01*
X146508Y119499D01*
Y118999D01*
X147008Y118500D01*
X146508Y118000D01*
Y117500D01*
X147008Y117000D01*
X148008D01*
X148508Y117500D01*
Y118000D01*
X148008Y118500D01*
X148508Y118999D01*
Y119499D01*
X148008Y118500D02*
X147008D01*
X143509Y119999D02*
X144509Y119499D01*
X145509Y118500D01*
Y117500D01*
X145009Y117000D01*
X144009D01*
X143509Y117500D01*
Y118000D01*
X144009Y118500D01*
X145509D01*
X171500Y125499D02*
Y124000D01*
X171000Y123500D01*
X170500Y124000D01*
X170001Y123500D01*
X169501Y124000D01*
Y125499D01*
X168501D02*
Y124000D01*
X168001Y123500D01*
X167501Y124000D01*
X167001Y123500D01*
X166502Y124000D01*
Y125499D01*
X165502D02*
Y124000D01*
X165002Y123500D01*
X164502Y124000D01*
X164002Y123500D01*
X163503Y124000D01*
Y125499D01*
X162503Y123500D02*
Y124000D01*
X162003D01*
Y123500D01*
X162503D01*
X160004D02*
Y125499D01*
X158504D01*
X158004Y124999D01*
Y123500D01*
X156505Y125499D02*
X155505D01*
X155005Y124999D01*
Y123500D01*
X156505D01*
X157005Y124000D01*
X156505Y124500D01*
X155005D01*
X154006Y125499D02*
X152006Y123500D01*
X153006Y124500D01*
X152006Y125499D01*
X154006Y123500D01*
X151007D02*
X150007D01*
X150507D01*
Y125499D01*
X151007D01*
X148507Y123500D02*
X147008D01*
X146508Y124000D01*
X147008Y124500D01*
X148008D01*
X148507Y124999D01*
X148008Y125499D01*
X146508D01*
X145508Y123500D02*
Y124000D01*
X145009D01*
Y123500D01*
X145508D01*
X143009Y125499D02*
Y124000D01*
X142509Y123500D01*
X141010D01*
Y125499D01*
X140010Y123500D02*
X138511D01*
X138011Y124000D01*
X138511Y124500D01*
X139510D01*
X140010Y124999D01*
X139510Y125499D01*
X138011D01*
X171500Y129500D02*
Y132499D01*
X169501Y129500D01*
Y132499D01*
X168001Y131499D02*
X167001D01*
X166502Y131000D01*
Y129500D01*
X168001D01*
X168501Y130000D01*
X168001Y130500D01*
X166502D01*
X165502Y131499D02*
X163503Y129500D01*
X164502Y130500D01*
X163503Y131499D01*
X165502Y129500D01*
X162503D02*
X161503D01*
X162003D01*
Y131499D01*
X162503D01*
X160004Y129500D02*
X158504D01*
X158004Y130000D01*
X158504Y130500D01*
X159504D01*
X160004Y131000D01*
X159504Y131499D01*
X158004D01*
X156505Y129000D02*
X156005Y129500D01*
Y130000D01*
X156505D01*
Y129500D01*
X156005D01*
X156505Y129000D01*
X157005Y128500D01*
X151007Y132499D02*
X150007D01*
X150507D01*
Y129500D01*
X151007D01*
X150007D01*
X148507D02*
Y131499D01*
X147008D01*
X146508Y131000D01*
Y129500D01*
X143509Y131499D02*
X145009D01*
X145508Y131000D01*
Y130000D01*
X145009Y129500D01*
X143509D01*
X142509D02*
Y130000D01*
X142009D01*
Y129500D01*
X142509D01*
M02*
