M48
;Layer_Color=9474304
;FILE_FORMAT=2:5
INCH,LZ
;TYPE=PLATED
T1F00S00C0.02000
T2F00S00C0.02500
T3F00S00C0.03000
T4F00S00C0.03500
T5F00S00C0.03543
T6F00S00C0.04000
T7F00S00C0.12500
%
T01
X01095Y00185
X01185Y003
X0114Y00435
X01135Y0049
X011Y00535
X01035Y00595
X0131551Y0054051
X0135Y0049
X01305Y00435
X0097Y00385
X0093Y00325
X0078Y00465
X008Y0056
X00755Y0074
X008Y01
X0047492Y0077555
X0142Y0068
X0148
X0154
X01595
X01825Y0084
T02
X00585Y0026
X00775
T03
X0065Y00445
Y00545
Y0068
Y0078
T04
X00525Y0011
X00625
X00735
X00835
X00375Y0046
X00255
T05
X0146Y00185
X0156
Y00285
X0146
Y00385
X0156
X01955Y00345
Y00445
Y00545
Y00645
X0009Y0061
Y0071
Y0081
Y0091
X00195Y0093
Y0111
X00435
Y0093
X00675
Y0111
X00915
Y0093
X01155
Y0111
X01395
Y0093
X01635
Y0111
X01875
Y0093
X01955Y00745
T06
X00225Y0033
X00375
T07
X01945Y0012
X0012
Y0124
X01945
M30
