G04 Layer_Color=65535*
%FSLAX25Y25*%
%MOIN*%
G70*
G01*
G75*
%ADD31C,0.01000*%
%ADD32C,0.00984*%
%ADD33C,0.00800*%
%ADD34C,0.02362*%
%ADD35C,0.00787*%
%ADD36C,0.00500*%
D31*
X35717Y101500D02*
G03*
X35717Y101500I-4717J0D01*
G01*
X74000Y49500D02*
G03*
X74000Y49500I-9000J0D01*
G01*
X179717Y101500D02*
G03*
X179717Y101500I-4717J0D01*
G01*
X131717D02*
G03*
X131717Y101500I-4717J0D01*
G01*
X83717D02*
G03*
X83717Y101500I-4717J0D01*
G01*
X74000Y73000D02*
G03*
X74000Y73000I-9000J0D01*
G01*
D32*
X141146Y54051D02*
G03*
X141146Y54051I-492J0D01*
G01*
X53594Y59445D02*
G03*
X53594Y59445I-492J0D01*
G01*
X90039Y63748D02*
G03*
X90039Y63748I-600J0D01*
G01*
D33*
X50500Y33000D02*
G03*
X50500Y19000I4000J-7000D01*
G01*
X85500D02*
G03*
X85500Y33000I-4000J7000D01*
G01*
X15500Y38000D02*
X16500Y39000D01*
X15500Y28000D02*
Y38000D01*
Y28000D02*
X16500Y27000D01*
X43400D02*
Y39000D01*
X16500Y27000D02*
X43400D01*
X16500D02*
Y39000D01*
X43400D01*
X50500Y33000D02*
X85500D01*
X50500Y19000D02*
X85500D01*
X88100Y7000D02*
Y15000D01*
X68900D02*
X88100D01*
X68900Y7000D02*
Y15000D01*
Y7000D02*
X88100D01*
X47900D02*
Y15000D01*
Y7000D02*
X67100D01*
Y15000D01*
X47900D02*
X67100D01*
X51500Y87900D02*
Y107100D01*
X59500D01*
Y87900D02*
Y107100D01*
X51500Y87900D02*
X59500D01*
X99500D02*
Y107100D01*
X107500D01*
Y87900D02*
Y107100D01*
X99500Y87900D02*
X107500D01*
X195000D02*
Y107100D01*
X203000D01*
Y87900D02*
Y107100D01*
X195000Y87900D02*
X203000D01*
X147500D02*
Y107100D01*
X155500D01*
Y87900D02*
Y107100D01*
X147500Y87900D02*
X155500D01*
D34*
X97520Y56661D02*
G03*
X97520Y56661I-1181J0D01*
G01*
D35*
X15000Y115500D02*
X48000D01*
X15000Y87961D02*
X48000D01*
X15000D02*
Y115500D01*
X48000Y87961D02*
Y115500D01*
X181185Y59957D02*
Y67043D01*
X141815Y59957D02*
Y67043D01*
X181185D01*
X141815Y59957D02*
X181185D01*
X141000Y13303D02*
Y43500D01*
X161000Y13303D02*
Y43500D01*
X141000D02*
X161000D01*
X141000Y13303D02*
X161000D01*
X27217Y55311D02*
X41783D01*
Y81689D01*
X27217D02*
X41783D01*
X27217Y55311D02*
Y81689D01*
X159000Y115500D02*
X192000D01*
X159000Y87961D02*
X192000D01*
X159000D02*
Y115500D01*
X192000Y87961D02*
Y115500D01*
X111000D02*
X144000D01*
X111000Y87961D02*
X144000D01*
X111000D02*
Y115500D01*
X144000Y87961D02*
Y115500D01*
X63000D02*
X96000D01*
X63000Y87961D02*
X96000D01*
X63000D02*
Y115500D01*
X96000Y87961D02*
Y115500D01*
X92795Y35795D02*
Y60205D01*
X117205Y35795D02*
Y60205D01*
X92795D02*
X117205D01*
X92795Y35795D02*
X117205D01*
D36*
X9500Y38499D02*
Y35500D01*
X11000D01*
X11499Y36000D01*
Y37999D01*
X11000Y38499D01*
X9500D01*
X12499Y35500D02*
X13499D01*
X12999D01*
Y38499D01*
X12499Y37999D01*
X17000Y80999D02*
Y79000D01*
X18000Y78000D01*
X18999Y79000D01*
Y80999D01*
X19999Y78000D02*
Y80999D01*
X21499D01*
X21998Y80499D01*
Y79500D01*
X21499Y79000D01*
X19999D01*
X20999D02*
X21998Y78000D01*
X22998D02*
X23998D01*
X23498D01*
Y80999D01*
X22998Y80499D01*
X52499Y83499D02*
X51999Y83999D01*
X51000D01*
X50500Y83499D01*
Y81500D01*
X51000Y81000D01*
X51999D01*
X52499Y81500D01*
X55498Y81000D02*
X53499D01*
X55498Y82999D01*
Y83499D01*
X54999Y83999D01*
X53999D01*
X53499Y83499D01*
X51999Y45499D02*
X51499Y45999D01*
X50500D01*
X50000Y45499D01*
Y43500D01*
X50500Y43000D01*
X51499D01*
X51999Y43500D01*
X52999Y43000D02*
X53999D01*
X53499D01*
Y45999D01*
X52999Y45499D01*
X92499Y9499D02*
X92000Y9999D01*
X91000D01*
X90500Y9499D01*
Y7500D01*
X91000Y7000D01*
X92000D01*
X92499Y7500D01*
X93499Y9499D02*
X93999Y9999D01*
X94999D01*
X95498Y9499D01*
Y8999D01*
X94999Y8500D01*
X94499D01*
X94999D01*
X95498Y8000D01*
Y7500D01*
X94999Y7000D01*
X93999D01*
X93499Y7500D01*
X42999Y9499D02*
X42500Y9999D01*
X41500D01*
X41000Y9499D01*
Y7500D01*
X41500Y7000D01*
X42500D01*
X42999Y7500D01*
X45499Y7000D02*
Y9999D01*
X43999Y8500D01*
X45998D01*
X136501Y56000D02*
X139000D01*
X139500Y56500D01*
Y57499D01*
X139000Y57999D01*
X136501D01*
X139500Y58999D02*
Y59999D01*
Y59499D01*
X136501D01*
X137001Y58999D01*
X41500Y21499D02*
Y20999D01*
X42500Y19999D01*
X43499Y20999D01*
Y21499D01*
X42500Y19999D02*
Y18500D01*
X44499D02*
X45499D01*
X44999D01*
Y21499D01*
X44499Y20999D01*
X83500Y68999D02*
Y66500D01*
X84000Y66000D01*
X85000D01*
X85499Y66500D01*
Y68999D01*
X86499Y68499D02*
X86999Y68999D01*
X87999D01*
X88498Y68499D01*
Y66500D01*
X87999Y66000D01*
X86999D01*
X86499Y66500D01*
Y68499D01*
X25500Y120999D02*
Y118000D01*
X27000D01*
X27499Y118500D01*
Y119000D01*
Y119500D01*
X27000Y119999D01*
X25500D01*
X28999Y120499D02*
Y119999D01*
X28499D01*
X29499D01*
X28999D01*
Y118500D01*
X29499Y118000D01*
X30998D02*
Y119999D01*
X32498D01*
X32998Y119500D01*
Y118000D01*
X33997Y117500D02*
X35997D01*
X37496Y118000D02*
Y120499D01*
Y119500D01*
X36996D01*
X37996D01*
X37496D01*
Y120499D01*
X37996Y120999D01*
X40995Y118000D02*
X39995D01*
X39496Y118500D01*
Y119500D01*
X39995Y119999D01*
X40995D01*
X41495Y119500D01*
Y119000D01*
X39496D01*
X43994Y118000D02*
X42994D01*
X42494Y118500D01*
Y119500D01*
X42994Y119999D01*
X43994D01*
X44494Y119500D01*
Y119000D01*
X42494D01*
X47493Y120999D02*
Y118000D01*
X45993D01*
X45494Y118500D01*
Y119500D01*
X45993Y119999D01*
X47493D01*
X63100Y121899D02*
Y118900D01*
X64600D01*
X65099Y119400D01*
Y119900D01*
Y120399D01*
X64600Y120899D01*
X63100D01*
X66599Y121399D02*
Y120899D01*
X66099D01*
X67099D01*
X66599D01*
Y119400D01*
X67099Y118900D01*
X68598D02*
Y120899D01*
X70098D01*
X70598Y120399D01*
Y118900D01*
X71597Y118400D02*
X73597D01*
X74596Y118900D02*
Y120899D01*
X75096D01*
X75596Y120399D01*
Y118900D01*
Y120399D01*
X76096Y120899D01*
X76596Y120399D01*
Y118900D01*
X78095D02*
X79095D01*
X79595Y119400D01*
Y120399D01*
X79095Y120899D01*
X78095D01*
X77595Y120399D01*
Y119400D01*
X78095Y118900D01*
X82594Y121899D02*
Y118900D01*
X81094D01*
X80594Y119400D01*
Y120399D01*
X81094Y120899D01*
X82594D01*
X85093Y118900D02*
X84093D01*
X83593Y119400D01*
Y120399D01*
X84093Y120899D01*
X85093D01*
X85593Y120399D01*
Y119900D01*
X83593D01*
X111100Y122399D02*
Y119400D01*
X112600D01*
X113099Y119900D01*
Y120400D01*
Y120899D01*
X112600Y121399D01*
X111100D01*
X114599Y121899D02*
Y121399D01*
X114099D01*
X115099D01*
X114599D01*
Y119900D01*
X115099Y119400D01*
X116598D02*
Y121399D01*
X118098D01*
X118598Y120899D01*
Y119400D01*
X119597Y118900D02*
X121597D01*
X122596Y118400D02*
Y121399D01*
X124096D01*
X124596Y120899D01*
Y119900D01*
X124096Y119400D01*
X122596D01*
X125595D02*
X126595D01*
X126095D01*
Y122399D01*
X125595D01*
X128094Y121399D02*
Y119900D01*
X128594Y119400D01*
X130094D01*
Y121399D01*
X131094Y119400D02*
X132593D01*
X133093Y119900D01*
X132593Y120400D01*
X131593D01*
X131094Y120899D01*
X131593Y121399D01*
X133093D01*
X159100Y121899D02*
Y118900D01*
X160600D01*
X161099Y119400D01*
Y119900D01*
Y120399D01*
X160600Y120899D01*
X159100D01*
X162599Y121399D02*
Y120899D01*
X162099D01*
X163099D01*
X162599D01*
Y119400D01*
X163099Y118900D01*
X164598D02*
Y120899D01*
X166098D01*
X166598Y120399D01*
Y118900D01*
X167597Y118400D02*
X169597D01*
X170596Y118900D02*
X172096D01*
X172596Y119400D01*
X172096Y119900D01*
X171096D01*
X170596Y120399D01*
X171096Y120899D01*
X172596D01*
X175095Y118900D02*
X174095D01*
X173595Y119400D01*
Y120399D01*
X174095Y120899D01*
X175095D01*
X175595Y120399D01*
Y119900D01*
X173595D01*
X177094Y121399D02*
Y120899D01*
X176594D01*
X177594D01*
X177094D01*
Y119400D01*
X177594Y118900D01*
X53500Y109000D02*
Y111999D01*
X55000D01*
X55499Y111499D01*
Y110500D01*
X55000Y110000D01*
X53500D01*
X54500D02*
X55499Y109000D01*
X56499D02*
X57499D01*
X56999D01*
Y111999D01*
X56499Y111499D01*
X101000Y109000D02*
Y111999D01*
X102499D01*
X102999Y111499D01*
Y110500D01*
X102499Y110000D01*
X101000D01*
X102000D02*
X102999Y109000D01*
X105998D02*
X103999D01*
X105998Y110999D01*
Y111499D01*
X105499Y111999D01*
X104499D01*
X103999Y111499D01*
X149000Y109000D02*
Y111999D01*
X150499D01*
X150999Y111499D01*
Y110500D01*
X150499Y110000D01*
X149000D01*
X150000D02*
X150999Y109000D01*
X151999Y111499D02*
X152499Y111999D01*
X153499D01*
X153998Y111499D01*
Y110999D01*
X153499Y110500D01*
X152999D01*
X153499D01*
X153998Y110000D01*
Y109500D01*
X153499Y109000D01*
X152499D01*
X151999Y109500D01*
X196500Y109000D02*
Y111999D01*
X198000D01*
X198499Y111499D01*
Y110500D01*
X198000Y110000D01*
X196500D01*
X197500D02*
X198499Y109000D01*
X200999D02*
Y111999D01*
X199499Y110500D01*
X201498D01*
X129071Y37319D02*
Y40318D01*
X130071Y39318D01*
X131070Y40318D01*
Y37319D01*
X132070Y40318D02*
X133070D01*
X132570D01*
Y37319D01*
X132070D01*
X133070D01*
X136568Y39818D02*
X136069Y40318D01*
X135069D01*
X134569Y39818D01*
Y39318D01*
X135069Y38818D01*
X136069D01*
X136568Y38319D01*
Y37819D01*
X136069Y37319D01*
X135069D01*
X134569Y37819D01*
X139068Y40318D02*
X138068D01*
X137568Y39818D01*
Y37819D01*
X138068Y37319D01*
X139068D01*
X139567Y37819D01*
Y39818D01*
X139068Y40318D01*
X133826Y29582D02*
X133326Y30082D01*
X132327D01*
X131827Y29582D01*
Y29082D01*
X132327Y28582D01*
X133326D01*
X133826Y28082D01*
Y27582D01*
X133326Y27083D01*
X132327D01*
X131827Y27582D01*
X136825Y29582D02*
X136325Y30082D01*
X135326D01*
X134826Y29582D01*
Y27582D01*
X135326Y27083D01*
X136325D01*
X136825Y27582D01*
X137825Y30082D02*
Y27083D01*
Y28082D01*
X139824Y30082D01*
X138325Y28582D01*
X139824Y27083D01*
X131827Y16847D02*
Y19846D01*
X133326D01*
X133826Y19346D01*
Y18346D01*
X133326Y17846D01*
X131827D01*
X132826D02*
X133826Y16847D01*
X136825Y19346D02*
X136325Y19846D01*
X135326D01*
X134826Y19346D01*
Y18846D01*
X135326Y18346D01*
X136325D01*
X136825Y17846D01*
Y17346D01*
X136325Y16847D01*
X135326D01*
X134826Y17346D01*
X137825Y19846D02*
X139824D01*
X138824D01*
Y16847D01*
X162535Y40318D02*
Y38319D01*
X163535Y37319D01*
X164535Y38319D01*
Y40318D01*
X167534Y39318D02*
X166034D01*
X165534Y38818D01*
Y37819D01*
X166034Y37319D01*
X167534D01*
X170533Y39318D02*
X169033D01*
X168534Y38818D01*
Y37819D01*
X169033Y37319D01*
X170533D01*
X162142Y27083D02*
Y30082D01*
X163141Y29082D01*
X164141Y30082D01*
Y27083D01*
X166640Y30082D02*
X165641D01*
X165141Y29582D01*
Y27582D01*
X165641Y27083D01*
X166640D01*
X167140Y27582D01*
Y29582D01*
X166640Y30082D01*
X170139Y29582D02*
X169639Y30082D01*
X168640D01*
X168140Y29582D01*
Y29082D01*
X168640Y28582D01*
X169639D01*
X170139Y28082D01*
Y27582D01*
X169639Y27083D01*
X168640D01*
X168140Y27582D01*
X171139Y30082D02*
X172139D01*
X171639D01*
Y27083D01*
X171139D01*
X172139D01*
X164141Y19346D02*
X163641Y19846D01*
X162642D01*
X162142Y19346D01*
Y17346D01*
X162642Y16847D01*
X163641D01*
X164141Y17346D01*
Y18346D01*
X163141D01*
X165141Y16847D02*
Y19846D01*
X167140Y16847D01*
Y19846D01*
X168140D02*
Y16847D01*
X169639D01*
X170139Y17346D01*
Y19346D01*
X169639Y19846D01*
X168140D01*
X60001Y44500D02*
Y48499D01*
X58002Y46499D02*
X62000D01*
X69999Y78000D02*
Y74001D01*
X71998Y76001D02*
X68000D01*
M02*
